<svg width="100" height="100" viewBox="0 0 100 100" xmlns="http://www.w3.org/2000/svg">
  <path d="M40 90C17.909 90 0 72.091 0 50S17.909 10 40 10c19.643 0 35.971 14.079 39.392 32.682C79.785 42.235 80 41.629 80 41c0-5.523 4.477-10 10-10s10 4.477 10 10c0 4.478-2.943 8.268-7 9.539V85c0 2.761-2.239 5-5 5H40z" fill="currentColor"/>
  <path d="M40 20c16.569 0 30 13.431 30 30 0 16.569-13.431 30-30 30C23.431 80 10 66.569 10 50c0-16.569 13.431-30 30-30zm0 10c-11.046 0-20 8.954-20 20s8.954 20 20 20 20-8.954 20-20-8.954-20-20-20z" fill="currentColor"/>
  <path d="M85 45c2.761 0 5 2.239 5 5v35c0 2.761-2.239 5-5 5s-5-2.239-5-5V50c0-2.761 2.239-5 5-5z" fill="currentColor"/>
  <circle cx="85" cy="41" r="5" fill="currentColor"/>
</svg> 